<svg xmlns="http://www.w3.org/2000/svg" width="512" height="512" viewBox="0 0 512 512"><g transform="translate(26 26)"><rect width="100" height="100" fill="#e8eaed" rx="24"/><rect width="100" height="100" x="120" fill="#e8eaed" rx="24"/><rect width="100" height="100" x="240" fill="#e8eaed" rx="24"/><rect width="100" height="100" x="360" fill="#e8eaed" rx="24"/><rect width="100" height="100" y="120" fill="#e8eaed" rx="24"/><rect width="100" height="100" x="120" y="120" fill="#4285f4" rx="24"/><rect width="100" height="100" x="240" y="120" fill="#e8eaed" rx="24"/><rect width="100" height="100" x="360" y="120" fill="#e8eaed" rx="24"/><rect width="100" height="100" y="240" fill="#e8eaed" rx="24"/><rect width="100" height="100" x="120" y="240" fill="#e8eaed" rx="24"/><rect width="100" height="100" x="240" y="240" fill="#fbbc04" rx="24"/><rect width="100" height="100" x="360" y="240" fill="#e8eaed" rx="24"/><rect width="100" height="100" y="360" fill="#e8eaed" rx="24"/><rect width="100" height="100" x="120" y="360" fill="#e8eaed" rx="24"/><rect width="100" height="100" x="240" y="360" fill="#e8eaed" rx="24"/><rect width="100" height="100" x="360" y="360" fill="#e8eaed" rx="24"/></g></svg>